# xmcd
#
# Track frame offsets:
#  150
#  15726
#  30643
#  42822
#  55336
#  67920
#  83185
#  96620
#  111704
#  127231
#  136195
#  149391
#  168237
#  184641
#  199263
#  213022
#  231527
#  246766
#
# Disc length: 3563 seconds
#
# Revision: 0
# Processed by: cddbd v1.5.2PL0 Copyright (c) Steve Scherf et al.
# Submitted via: Collectorz.com_Music_Collector 6.11
#
DISCID=0b0de912
DTITLE=Various Artist - Country Bauska 13
DYEAR=2011
DGENRE=
TTITLE0=Dakota - Viss vēl būs
TTITLE1=Klaidonis - Es ilgi klusēju
TTITLE2=Edvīns Bauers - Ar tavu vārdu
TTITLE3=Emburgas Zeni - Pavasaris klāt
TTITLE4=Linita - Kas par to
TTITLE5=Sestā jūdze - Uz īsu brīdi
TTITLE6=Tequila - Sirmā Vecrīga
TTITLE7=Dakota - Bagātību sala
TTITLE8=Klaidonis - Krodzinieks
TTITLE9=Pete Anderson and The Swamp Shakers - Look Out Heart
TTITLE10=Hillbilly Deluxe - Marie Laveux
TTITLE11=Vydraga - My Old Cottage Home
TTITLE12=Modern Earl - Ain't Complainin'
TTITLE13=Pete Anderson and The Swamp Shakers - I'm Getting Good At Missin' You
TTITLE14=Hillbilly Deluxe - Meanest Woman
TTITLE15=Vydraga - Somewhere Somebody's Missing For You
TTITLE16=Jolanta Gulbe and Ivars Pētersons - Only You
TTITLE17=Modern Earl - Will The Circle Be Unbroken
EXTD=
EXTT0=
EXTT1=
EXTT2=
EXTT3=
EXTT4=
EXTT5=
EXTT6=
EXTT7=
EXTT8=
EXTT9=
EXTT10=
EXTT11=
EXTT12=
EXTT13=
EXTT14=
EXTT15=
EXTT16=
EXTT17=
PLAYORDER=
